<svg xmlns="http://www.w3.org/2000/svg" viewBox="0 0 512 512">
  <rect width="512" height="512" rx="100" fill="#2563eb" />
  <rect x="100" y="80" width="312" height="340" rx="32" fill="#ffffff" />
  <!-- Clipboard clip -->
  <rect x="200" y="48" width="112" height="48" rx="24" fill="#0f172a" />
  <circle cx="256" cy="72" r="10" fill="#ffffff" />
  
  <!-- QR Code representation (simplified) -->
  <g fill="#111827">
    <rect x="140" y="120" width="80" height="80" />
    <rect x="160" y="140" width="40" height="40" fill="#ffffff" />
    <rect x="170" y="150" width="20" height="20" />

    <rect x="292" y="120" width="80" height="80" />
    <rect x="312" y="140" width="40" height="40" fill="#ffffff" />
    <rect x="322" y="150" width="20" height="20" />

    <rect x="140" y="232" width="80" height="80" />
    <rect x="160" y="252" width="40" height="40" fill="#ffffff" />
    <rect x="170" y="262" width="20" height="20" />

    <rect x="240" y="140" width="30" height="30" />
    <rect x="260" y="210" width="30" height="80" />
    <rect x="300" y="230" width="70" height="30" />
    <rect x="240" y="270" width="30" height="40" />
    <rect x="330" y="280" width="40" height="30" />
  </g>

  <!-- Title "ABSENSI" -->
  <text x="256" y="480" font-family="sans-serif" font-weight="900" font-size="44" fill="#ffffff" text-anchor="middle" letter-spacing="4">ABSENSI</text>
  
  <!-- Checkmark -->
  <circle cx="380" cy="320" r="50" fill="#10b981" stroke="#ffffff" stroke-width="8" />
  <path d="M 350 320 l 20 20 l 40 -40" fill="none" stroke="#ffffff" stroke-width="12" stroke-linecap="round" stroke-linejoin="round" />
</svg>
